<svg
  xmlns="http://www.w3.org/2000/svg" viewBox="0 0 512 512" width="512" height="512">
  <defs>
    <linearGradient id="gris" x1="14%" y1="0%" x2="86%" y2="0%">
      <stop offset="27%" style="stop-color:#E2DCC6;stop-opacity:1" />
      <stop offset="28%" style="stop-color:#BEB8A6;stop-opacity:1" />
      <stop offset="73%" style="stop-color:#BEB8A6;stop-opacity:1" />
      <stop offset="74%" style="stop-color:#E2DCC6;stop-opacity:1" />
    </linearGradient>
    <linearGradient id="vert" x1="14%" y1="0%" x2="86%" y2="0%">
      <stop offset="27%" style="stop-color:#76CB61;stop-opacity:1" />
      <stop offset="28%" style="stop-color:#4CAD41;stop-opacity:1" />
      <stop offset="73%" style="stop-color:#4CAD41;stop-opacity:1" />
      <stop offset="74%" style="stop-color:#76CB61;stop-opacity:1" />
    </linearGradient>
    <linearGradient id="rouge" x1="30%" y1="0%" x2="70%" y2="0%">
      <stop offset="41%" style="stop-color:#E73735;stop-opacity:1" />
      <stop offset="51%" style="stop-color:#F04C4C;stop-opacity:1" />
    </linearGradient>
  </defs>

  <polygon points="417,221 430,225 430,390 314,305  290,296  82,296  290,296  316,263" fill="url(#gris)" />
  <polygon points="139,477 280,310 314,325 430,410 430,495 314,460 198,495 80,460" fill="url(#vert)" />
  <polygon points="80,190 198,225 314,190 400,215 430,225 400,215    314,248   182,408 80,260" fill="url(#gris)" />
  <polygon points="80,285  171,420  430,420  171,420  124,473 80,460" fill="url(#gris)" />

  <ellipse cx="256" cy="88" rx="70" ry="70" stroke-width="36" stroke="url(#rouge)" fill="none" />
  <polygon points="174,120 256,330 340,115 256,160" fill="url(#rouge)" />
</svg>